<svg xmlns="http://www.w3.org/2000/svg" xmlns:xlink="http://www.w3.org/1999/xlink" width="100" zoomAndPan="magnify" viewBox="0 0 75 74.999997" height="100" preserveAspectRatio="xMidYMid meet" version="1.0"><defs><clipPath id="9df66400b0"><path d="M 1.015625 3 L 73.765625 3 L 73.765625 73 L 1.015625 73 Z M 1.015625 3 " clip-rule="nonzero"/></clipPath><clipPath id="d08b535be6"><path d="M 1.015625 1.015625 L 73.765625 1.015625 L 73.765625 73.765625 L 1.015625 73.765625 Z M 1.015625 1.015625 " clip-rule="nonzero"/></clipPath></defs><g clip-path="url(#9df66400b0)"><path fill="#ff3131" d="M 73.496094 38.359375 C 73.496094 41.964844 67.707031 44.613281 66.652344 47.867188 C 65.554688 51.238281 68.644531 56.777344 66.601562 59.585938 C 64.539062 62.421875 58.304688 61.183594 55.46875 63.246094 C 52.660156 65.289062 51.921875 71.613281 48.550781 72.707031 C 45.296875 73.765625 40.996094 69.117188 37.390625 69.117188 C 33.785156 69.117188 29.484375 73.765625 26.230469 72.707031 C 22.855469 71.613281 22.117188 65.289062 19.3125 63.246094 C 16.476562 61.183594 10.242188 62.421875 8.175781 59.585938 C 6.132812 56.777344 9.222656 51.238281 8.128906 47.867188 C 7.074219 44.613281 1.28125 41.964844 1.28125 38.359375 C 1.28125 34.75 7.074219 32.105469 8.128906 28.851562 C 9.222656 25.476562 6.132812 19.941406 8.175781 17.132812 C 10.242188 14.296875 16.476562 15.535156 19.3125 13.472656 C 22.121094 11.429688 22.855469 5.105469 26.230469 4.007812 C 29.484375 2.953125 33.785156 7.601562 37.390625 7.601562 C 40.996094 7.601562 45.296875 2.953125 48.550781 4.007812 C 51.921875 5.105469 52.660156 11.429688 55.46875 13.472656 C 58.304688 15.535156 64.539062 14.296875 66.601562 17.132812 C 68.644531 19.941406 65.554688 25.476562 66.652344 28.851562 C 67.707031 32.105469 73.496094 34.75 73.496094 38.359375 " fill-opacity="1" fill-rule="nonzero"/></g><g clip-path="url(#d08b535be6)"><path stroke-linecap="butt" transform="matrix(0.00545704, 0, 0, -0.00545704, -15.091647, 89.777087)" fill="none" stroke-linejoin="miter" d="M 16233.669128 9811.681177 C 16233.669128 9150.980427 15172.825671 8665.655283 14979.554596 8069.378225 C 14778.409514 7451.626603 15344.622182 6436.595549 14970.248951 5922.637653 C 14592.296626 5402.953206 13449.849827 5629.867765 12930.16538 5251.199621 C 12415.491665 4876.82639 12280.201912 3718.631577 11662.45029 3517.486495 C 11066.173233 3324.21542 10278.056737 4175.323969 9617.355987 4175.323969 C 8955.939419 4175.323969 8168.538742 3324.21542 7572.261684 3517.486495 C 6953.794244 3718.631577 6818.504491 4876.82639 6304.546595 5251.199621 C 5784.862148 5629.867765 4642.415348 5402.953206 4263.747205 5922.637653 C 3889.373974 6436.595549 4455.586642 7451.626603 4255.157379 8069.378225 C 4061.170485 8665.655283 3000.327028 9150.980427 3000.327028 9811.681177 C 3000.327028 10473.097745 4061.170485 10957.707071 4255.157379 11554.699947 C 4455.586642 12172.451569 3889.373974 13187.482623 4263.747205 13701.44052 C 4642.415348 14221.124966 5784.862148 13994.210408 6304.546595 14372.878551 C 6818.504491 14747.251782 6953.794244 15905.446596 7572.261684 16106.591678 C 8168.538742 16299.862753 8955.939419 15448.754203 9617.355987 15448.754203 C 10278.056737 15448.754203 11066.173233 16299.862753 11662.45029 16106.591678 C 12280.201912 15905.446596 12415.491665 14747.251782 12930.16538 14372.162732 C 13449.849827 13994.210408 14592.296626 14221.124966 14970.248951 13701.44052 C 15344.622182 13187.482623 14778.409514 12172.451569 14979.554596 11554.699947 C 15172.825671 10957.707071 16233.669128 10473.097745 16233.669128 9811.681177 Z M 16233.669128 9811.681177 " stroke="#231f20" stroke-width="96.171997" stroke-opacity="1" stroke-miterlimit="10"/></g><path fill="#ffffff" d="M 37.257812 15.960938 C 39.070312 15.960938 41.089844 16.363281 41.15625 18.246094 C 41.15625 18.917969 41.089844 19.859375 40.953125 20.867188 C 40.484375 26.046875 39.136719 38.148438 38.601562 46.152344 L 35.976562 46.152344 C 35.371094 38.148438 34.164062 26.382812 33.625 20.933594 C 33.558594 20.0625 33.421875 18.851562 33.421875 18.179688 C 33.421875 16.429688 35.371094 15.960938 37.257812 15.960938 Z M 37.324219 61.550781 C 34.902344 61.550781 33.222656 59.800781 33.222656 57.246094 C 33.222656 54.824219 34.902344 52.941406 37.324219 52.941406 C 39.742188 52.941406 41.558594 54.824219 41.558594 57.246094 C 41.558594 59.800781 39.742188 61.550781 37.324219 61.550781 " fill-opacity="1" fill-rule="nonzero"/><path stroke-linecap="butt" transform="matrix(0.00461838, 0, 0, -0.00461838, -15.091647, 89.777087)" fill="none" stroke-linejoin="miter" d="M 11335.023268 16300.298347 C 11728.322593 16300.298347 12164.757973 16212.334627 12179.136658 15804.656617 C 12179.136658 15659.178157 12164.757973 15455.339152 12136.000603 15237.121462 C 12033.658198 14115.584031 11742.701278 11495.28014 11625.980188 9762.225694 L 11058.445033 9762.225694 C 10927.345258 11495.28014 10665.145708 14042.844801 10548.424617 15222.742777 C 10534.045932 15412.203097 10505.288562 15673.556842 10505.288562 15819.881107 C 10505.288562 16197.955942 10927.345258 16300.298347 11335.023268 16300.298347 Z M 11349.401953 6428.062382 C 10825.002853 6428.062382 10461.306702 6806.983022 10461.306702 7360.139492 C 10461.306702 7884.538593 10825.002853 8292.216603 11349.401953 8292.216603 C 11873.801053 8292.216603 12267.100378 7884.538593 12267.100378 7360.139492 C 12267.100378 6806.983022 11873.801053 6428.062382 11349.401953 6428.062382 Z M 11349.401953 6428.062382 " stroke="#000000" stroke-width="113.640999" stroke-opacity="1" stroke-miterlimit="4"/></svg>